<?xml version="1.0" encoding="UTF-8"?>
<svg version="1.1" xmlns="http://www.w3.org/2000/svg" width="1920" height="1080">
<path d="M0 0 C6.79428675 0.9415016 13.35172461 2.28962886 19.9453125 4.18359375 C27.13499828 6.2136902 34.3404124 8.17430255 41.5625 10.0859375 C42.56519424 10.35144913 43.56788849 10.61696075 44.60096741 10.89051819 C46.67259653 11.43859147 48.74431923 11.98631117 50.81613159 12.53369141 C56.23357104 13.96520106 61.64994968 15.40071422 67.06640625 16.8359375 C68.64199059 17.25332184 68.64199059 17.25332184 70.24940491 17.67913818 C87.04175071 22.12904866 103.82024198 26.62715008 120.54736328 31.31689453 C123.37180947 32.10355593 126.19952191 32.87790668 129.02734375 33.65234375 C139.18826212 36.44746591 149.28420057 39.31056983 159.25390625 42.73022461 C165.29487053 44.79554072 171.3860948 46.66291801 177.5 48.5 C185.33134431 50.85627062 193.11176284 53.32041465 200.85766602 55.94360352 C205.03041132 57.35438208 209.2140573 58.68374846 213.4375 59.9375 C218.99063389 61.62112531 224.43114525 63.55895687 229.875 65.5625 C231.07080688 66.00227173 231.07080688 66.00227173 232.29077148 66.45092773 C236.92200203 68.17384853 241.47486717 70.01497507 246 72 C246 72.66 246 73.32 246 74 C246.80594604 74.2487085 246.80594604 74.2487085 247.62817383 74.50244141 C253.53141881 76.38858001 259.09265438 78.71890649 264.6875 81.375 C265.50283203 81.74882812 266.31816406 82.12265625 267.15820312 82.5078125 C274.39906488 85.92629533 279.37360526 90.29460752 285 96 C286.99980797 97.89809998 289.02911864 99.76298537 291.0625 101.625 C291.57876953 102.10195312 292.09503906 102.57890625 292.62695312 103.0703125 C294.80789588 105.07066764 296.96953866 106.97801966 299.37109375 108.7109375 C299.90863281 109.13632813 300.44617188 109.56171875 301 110 C301 110.66 301 111.32 301 112 C301.55816406 112.24363281 302.11632812 112.48726563 302.69140625 112.73828125 C309.80308714 116.62503747 315.80150244 123.14245398 320 130 C320 130.66 320 131.32 320 132 C320.66 132 321.32 132 322 132 C322.36738281 132.73089844 322.36738281 132.73089844 322.7421875 133.4765625 C326.45253332 140.51342526 331.07407803 146.82765684 335.734375 153.24755859 C342.38560659 162.45715357 348.62917211 171.94275511 354.90820312 181.40698242 C358.50595022 186.81190406 362.19236827 192.10340554 366.0625 197.31640625 C369.82416792 202.52661967 373.33495401 207.91236354 376.86132812 213.28369141 C377.62465615 214.43424801 378.39959757 215.5771782 379.18554688 216.71240234 C382 220.79434864 382 220.79434864 382 223 C382.66 223 383.32 223 384 223 C387 227.38461538 387 227.38461538 387 230 C387.66 230 388.32 230 389 230 C389.66 231.98 390.32 233.96 391 236 C391.66 236 392.32 236 393 236 C394.36135145 237.90963029 395.59376686 239.81343084 396.8125 241.8125 C400.53547477 247.76091423 404.39934211 253.59243849 408.375 259.375 C408.9215625 260.17196289 409.468125 260.96892578 410.03125 261.79003906 C412.76511255 265.77022131 415.51326999 269.73995983 418.27734375 273.69921875 C418.7892627 274.43543457 419.30118164 275.17165039 419.82861328 275.93017578 C420.79812584 277.32335161 421.77159645 278.71378361 422.74951172 280.10107422 C426 284.77616674 426 284.77616674 426 287 C426.66 287 427.32 287 428 287 C429.12109375 288.66015625 429.12109375 288.66015625 430.4375 291.0625 C433.59459 296.53478933 437.23271257 301.52872351 441.04077148 306.55688477 C443.24413654 309.4927463 445.29354625 312.40274333 447.0859375 315.609375 C448.87917378 318.78596498 450.82256008 321.64081792 453 324.5625 C455.78364287 328.30845691 458.42208105 332.10968595 461 336 C463.67113996 339.92363404 466.3606085 343.83475911 469.046875 347.74804688 C470.70193342 350.16264501 472.35104095 352.58123384 474 355 C474.57782227 355.83837402 475.15564453 356.67674805 475.75097656 357.54052734 C476.5742041 358.74829834 476.5742041 358.74829834 477.4140625 359.98046875 C477.91115723 360.70516357 478.40825195 361.4298584 478.92041016 362.17651367 C480 364 480 364 480 366 C480.66 366 481.32 366 482 366 C483.81687329 368.50709943 485.51392981 371.02374577 487.1875 373.625 C488.27484134 375.28594267 489.36343956 376.94606302 490.453125 378.60546875 C491.02998047 379.48638184 491.60683594 380.36729492 492.20117188 381.27490234 C495.22989652 385.86320643 498.33369753 390.39978646 501.4375 394.9375 C502.3804895 396.31784424 502.3804895 396.31784424 503.3425293 397.72607422 C504.60665991 399.57598191 505.87122363 401.42559372 507.13623047 403.27490234 C508.95814342 405.93879969 510.7781349 408.60399997 512.59765625 411.26953125 C513.73169419 412.92973986 514.86580532 414.58989847 516 416.25 C516.50329834 416.98726318 517.00659668 417.72452637 517.52514648 418.48413086 C520.11235357 422.26708074 522.72313983 426.03112125 525.36328125 429.77734375 C530.14781295 436.59829422 534.71380526 443.56427002 539.30273438 450.51757812 C539.98013672 451.53916016 540.65753906 452.56074219 541.35546875 453.61328125 C541.96028076 454.52891846 542.56509277 455.44455566 543.18823242 456.38793945 C544.99703429 459.07123404 544.99703429 459.07123404 547.2277832 461.71166992 C549 464 549 464 549 466 C549.66 466 550.32 466 551 466 C551.56203125 467.00546875 552.1240625 468.0109375 552.703125 469.046875 C554.90006877 472.88863081 557.28352472 476.57703896 559.75 480.25 C560.18610596 480.90258789 560.62221191 481.55517578 561.0715332 482.22753906 C564.31198655 487.04773558 567.70485749 491.73973719 571.15234375 496.4140625 C572.95231111 498.93325572 574.61284906 501.49766861 576.25 504.125 C579.31162934 509.02220573 582.59162807 513.73283779 585.9375 518.4375 C599.51588983 537.54766949 599.51588983 537.54766949 601 542 C601.66 542 602.32 542 603 542 C603.31453125 542.59167969 603.6290625 543.18335938 603.953125 543.79296875 C606.34614965 548.21141487 608.79556415 552.11583533 612 556 C613.05861892 557.48808448 614.09884743 558.9893444 615.125 560.5 C615.62257813 561.2321875 616.12015625 561.964375 616.6328125 562.71875 C618.04650157 565.07759119 619.04771086 567.42428461 620 570 C620.66 570 621.32 570 622 570 C623.625 572.5 623.625 572.5 625 575 C627.52258584 571.87199356 630.01781424 568.72261606 632.5 565.5625 C633.0671875 564.84191406 633.634375 564.12132812 634.21875 563.37890625 C636.25857022 560.65467267 638.11546329 557.83381078 640 555 C642.12907847 551.99316595 644.29598338 549.01338726 646.46484375 546.03515625 C648.56684424 543.12029756 650.54152116 540.29386795 652 537 C652.66 537 653.32 537 654 537 C654.27223389 536.26152832 654.54446777 535.52305664 654.82495117 534.76220703 C655.93698305 532.148135 657.15554534 530.10850143 658.80078125 527.8046875 C659.35918701 527.01602295 659.91759277 526.2273584 660.49291992 525.41479492 C661.09338135 524.5766626 661.69384277 523.73853027 662.3125 522.875 C663.58690907 521.07751136 664.86032315 519.27931692 666.1328125 517.48046875 C666.77895508 516.5682959 667.42509766 515.65612305 668.09082031 514.71630859 C671.00365513 510.57203747 673.84438385 506.3797532 676.6875 502.1875 C681.07316581 495.73412586 685.59654383 489.40905852 690.25195312 483.14819336 C693.49457987 478.76142709 696.44961807 474.24715557 699.32421875 469.609375 C701.73017122 465.86304341 704.39297223 462.32099924 707.0390625 458.7421875 C708.93310065 456.09355248 710.66481964 453.39501045 712.375 450.625 C714.96634709 446.47649423 717.79056015 442.59081809 720.8125 438.75 C724.95164539 433.48687615 728.71458601 428.05061289 732.38549805 422.45288086 C735.47954593 417.74385821 738.74229142 413.1882461 742.0859375 408.65234375 C744.04623388 405.93593305 745.90592735 403.17146408 747.75 400.375 C751.54818704 394.62175401 755.50503648 388.99138057 759.49365234 383.36889648 C762.65336738 378.91356817 765.78076391 374.4385101 768.875 369.9375 C771.72326034 365.80442657 774.63049486 361.74439258 777.7109375 357.78125 C779.07744934 355.94892595 779.07744934 355.94892595 780.38623047 353.6706543 C781.87787305 351.20210994 783.45037275 348.8464925 785.109375 346.48828125 C785.69976563 345.64716797 786.29015625 344.80605469 786.8984375 343.93945312 C787.50945313 343.07255859 788.12046875 342.20566406 788.75 341.3125 C789.34554687 340.46494141 789.94109375 339.61738281 790.5546875 338.74414062 C791.76294945 337.02459034 792.97177593 335.30543659 794.18115234 333.58666992 C797.1278349 329.39605225 800.06516474 325.19892052 803 321 C803.51626953 320.26193115 804.03253906 319.5238623 804.56445312 318.76342773 C806.00551255 316.69934148 807.44094876 314.63145939 808.875 312.5625 C809.3596875 311.86962891 809.844375 311.17675781 810.34375 310.46289062 C810.80523438 309.79580078 811.26671875 309.12871094 811.7421875 308.44140625 C812.1532373 307.85045166 812.56428711 307.25949707 812.98779297 306.65063477 C814.17346817 304.85685554 814.17346817 304.85685554 815 302 C815.5775 301.443125 816.155 300.88625 816.75 300.3125 C819.34261853 297.64786428 821.01114832 294.82130802 822.8515625 291.609375 C823.23054688 291.07828125 823.60953125 290.5471875 824 290 C824.66 290 825.32 290 826 290 C826.144375 289.38125 826.28875 288.7625 826.4375 288.125 C827 286 827 286 828 284 C828.66 284 829.32 284 830 284 C830.23589844 283.31292969 830.47179688 282.62585938 830.71484375 281.91796875 C832.2614332 278.40641156 834.3382584 275.41519405 836.5625 272.3125 C839.4980153 268.29029545 839.4980153 268.29029545 842 264 C842.66 264 843.32 264 844 264 C844.21785156 263.33613281 844.43570313 262.67226563 844.66015625 261.98828125 C846.44389704 258.00996724 848.88408779 254.70671061 851.4375 251.1875 C852.53208199 249.65814721 853.62581368 248.12818554 854.71875 246.59765625 C855.27046875 245.82695801 855.8221875 245.05625977 856.390625 244.26220703 C858.77660808 240.90836613 861.11166602 237.5207262 863.4375 234.125 C863.87425049 233.48763916 864.31100098 232.85027832 864.76098633 232.19360352 C865.67520246 230.85850796 866.58901 229.52313256 867.50244141 228.1875 C869.17967117 225.73755238 870.86121557 223.29059456 872.54296875 220.84375 C873.73705789 219.10422071 874.93106953 217.36463821 876.125 215.625 C876.97856079 214.38387451 876.97856079 214.38387451 877.84936523 213.11767578 C878.37602783 212.3492334 878.90269043 211.58079102 879.4453125 210.7890625 C880.14938232 209.76353271 880.14938232 209.76353271 880.86767578 208.71728516 C882.05183063 206.99550782 882.05183063 206.99550782 883 205 C883.66 205 884.32 205 885 205 C885.24492188 204.30132812 885.48984375 203.60265625 885.7421875 202.8828125 C887.19442727 199.55438718 889.03221142 196.84282213 891.125 193.875 C891.52243408 193.3087793 891.91986816 192.74255859 892.3293457 192.15917969 C895.55329961 187.58225366 898.85968134 183.06591011 902.1640625 178.546875 C905.57696033 173.81238694 908.78853729 168.96129437 911.85546875 163.99609375 C912.48066406 162.98675781 913.10585937 161.97742188 913.75 160.9375 C914.32234375 159.99777344 914.8946875 159.05804688 915.484375 158.08984375 C915.98453125 157.40019531 916.4846875 156.71054688 917 156 C917.66 156 918.32 156 919 156 C919.25007813 155.29359375 919.50015625 154.5871875 919.7578125 153.859375 C921.14582173 150.66433488 922.86315407 148.09458802 924.875 145.25 C925.26429688 144.69779785 925.65359375 144.1455957 926.0546875 143.57666016 C926.90791858 142.36713844 927.76315097 141.15902663 928.62011719 139.95214844 C930.07384994 137.89552298 931.51066498 135.82779054 932.9453125 133.7578125 C944.13382927 117.66160951 955.82897776 101.82509613 972.5 91.0625 C973.17039307 90.61898193 973.84078613 90.17546387 974.53149414 89.71850586 C979.26474882 86.82725376 979.26474882 86.82725376 982.66015625 87.625 C983.43230469 88.07875 984.20445312 88.5325 985 89 C985.81339844 89.29777344 986.62679687 89.59554687 987.46484375 89.90234375 C992.54809141 92.03040162 995.40631555 93.94358475 997.90625 98.9296875 C998.4108374 99.91090576 998.9154248 100.89212402 999.43530273 101.90307617 C999.95165283 102.92506104 1000.46800293 103.9470459 1001 105 C1002.05828188 106.9756232 1003.12215479 108.94826094 1004.19140625 110.91796875 C1005.31538696 113.00766042 1006.43907439 115.09750986 1007.5625 117.1875 C1011.21297803 123.97749661 1014.86748054 130.76501749 1018.5546875 137.53515625 C1023.6015125 146.80446749 1028.59762545 156.06293889 1033.23828125 165.54296875 C1035.91449706 170.79452305 1038.80850141 175.92248572 1041.71362305 181.05029297 C1042.12523682 181.78006348 1042.53685059 182.50983398 1042.9609375 183.26171875 C1043.33009277 183.91100342 1043.69924805 184.56028809 1044.07958984 185.22924805 C1045 187 1045 187 1046 190 C1046.66 190.33 1047.32 190.66 1048 191 C1048.65918977 192.83879252 1049.3169217 194.67811632 1049.96875 196.51953125 C1051.14728284 199.35425985 1052.60746207 201.86780044 1054.1875 204.5 C1056.9004601 209.03290416 1059.36868016 213.63122765 1061.6875 218.375 C1065.4683171 226.09002573 1069.57285718 233.61023967 1073.71313477 241.13720703 C1076.75876258 246.68658766 1079.67060926 252.27257471 1082.44921875 257.9609375 C1084.91243022 262.78808743 1087.59774035 267.49016311 1090.25170898 272.21435547 C1093.47885061 277.98731947 1096.44513096 283.84381821 1099.359375 289.78125 C1100.94438914 292.89089678 1102.64924107 295.87845802 1104.4375 298.875 C1107.25661182 303.62029229 1109.83444935 308.44598738 1112.3125 313.375 C1112.65015381 314.04128418 1112.98780762 314.70756836 1113.33569336 315.39404297 C1115.2217743 319.18910692 1116.75983821 322.93327656 1118 327 C1118.66 327 1119.32 327 1120 327 C1120.62261719 328.26263672 1120.62261719 328.26263672 1121.2578125 329.55078125 C1130.28716332 347.77594577 1139.64789231 365.83491884 1149.45996094 383.65087891 C1153.42357057 390.87470809 1157.22643798 398.17536523 1161 405.5 C1165.72318138 414.66757954 1170.55791845 423.75896489 1175.53125 432.79296875 C1179.29047383 439.64333153 1182.91394802 446.55760755 1186.5 453.5 C1191.06542557 462.33770847 1195.74758577 471.0990767 1200.54199219 479.81445312 C1204.7379281 487.46309242 1208.76299201 495.19465555 1212.77270508 502.94213867 C1216.06788288 509.28362694 1219.53106997 515.48308901 1223.125 521.66015625 C1226.31957102 527.35048589 1229.17937607 533.20619372 1232.04882812 539.06542969 C1233.68139247 542.38587113 1235.34234589 545.69202654 1237 549 C1229.63591957 560.01843613 1221.2801089 570.31943742 1213.0703125 580.7109375 C1206.72501019 588.74529344 1200.53879105 596.88578801 1194.42236328 605.09570312 C1193.04635525 606.93793839 1191.66345894 608.77473625 1190.27734375 610.609375 C1189.65013428 611.44057861 1189.65013428 611.44057861 1189.01025391 612.28857422 C1187.88903365 613.77363114 1186.76681877 615.25793697 1185.64453125 616.7421875 C1183.98878044 618.88484839 1183.98878044 618.88484839 1183 621 C1182.34 621 1181.68 621 1181 621 C1180.814375 621.66 1180.62875 622.32 1180.4375 623 C1178.74063134 626.54129111 1176.51235096 628.91602943 1173.87890625 631.796875 C1171.34192204 634.77163403 1169.31056039 637.98944726 1167.26171875 641.3125 C1166.84535156 641.869375 1166.42898438 642.42625 1166 643 C1165.34 643 1164.68 643 1164 643 C1163.5359375 643.928125 1163.5359375 643.928125 1163.0625 644.875 C1162.375 646.25 1161.6875 647.625 1161 649 C1160.34 649 1159.68 649 1159 649 C1158.77054688 649.69351563 1158.54109375 650.38703125 1158.3046875 651.1015625 C1156.72165923 654.61834986 1154.53810622 657.40560663 1152.125 660.375 C1151.40014404 661.28258057 1151.40014404 661.28258057 1150.66064453 662.20849609 C1149.11304873 664.14386084 1147.55717862 666.07234022 1146 668 C1143.95616871 670.53993194 1141.91486882 673.08188485 1139.875 675.625 C1139.37500488 676.24802002 1138.87500977 676.87104004 1138.35986328 677.51293945 C1130.23911533 687.65257516 1130.23911533 687.65257516 1122.875 698.33984375 C1122.25625 699.21769531 1121.6375 700.09554687 1121 701 C1120.34 701 1119.68 701 1119 701 C1118.690625 701.99 1118.690625 701.99 1118.375 703 C1116.50875748 707.07180186 1114.02438473 710.68796998 1111 714 C1110.34 714 1109.68 714 1109 714 C1108.62875 715.0828125 1108.62875 715.0828125 1108.25 716.1875 C1106.86693509 719.29939604 1105.20877083 721.41258274 1103 724 C1099.40621624 728.28803744 1095.90988263 732.62667884 1092.5 737.0625 C1092.066875 737.62259766 1091.63375 738.18269531 1091.1875 738.75976562 C1088.88856522 741.74754922 1088.88856522 741.74754922 1087 745 C1086.34 745 1085.68 745 1085 745 C1084.71125 745.763125 1084.4225 746.52625 1084.125 747.3125 C1083 750 1083 750 1081 753 C1080.34 753 1079.68 753 1079 753 C1078.5978125 753.84304688 1078.5978125 753.84304688 1078.1875 754.703125 C1076.9196021 757.15550646 1075.51027658 759.43927683 1074 761.75 C1073.484375 762.54921875 1072.96875 763.3484375 1072.4375 764.171875 C1071.7259375 765.07679688 1071.7259375 765.07679688 1071 766 C1070.34 766 1069.68 766 1069 766 C1068.74476562 766.55558594 1068.48953125 767.11117187 1068.2265625 767.68359375 C1066.8196692 770.34056103 1065.16252583 772.64471107 1063.375 775.0625 C1061.18020203 778.03944415 1058.98864976 781.01585756 1056.8359375 784.0234375 C1056.14757813 784.98507812 1055.45921875 785.94671875 1054.75 786.9375 C1054.12609375 787.81277344 1053.5021875 788.68804688 1052.859375 789.58984375 C1051.05358328 791.93054436 1049.09346911 793.91966982 1047 796 C1046.46375 796.9075 1045.9275 797.815 1045.375 798.75 C1044.92125 799.4925 1044.4675 800.235 1044 801 C1043.34 801 1042.68 801 1042 801 C1041.75121094 801.54140625 1041.50242187 802.0828125 1041.24609375 802.640625 C1039.72679185 805.51729694 1037.94633835 808.09789238 1036.0625 810.75 C1035.37285156 811.73484375 1034.68320313 812.7196875 1033.97265625 813.734375 C1033.32167969 814.48203125 1032.67070313 815.2296875 1032 816 C1031.01 816 1030.02 816 1029 816 C1023.7150899 806.14951479 1018.5743472 796.27461032 1013.89379883 786.12158203 C1011.81013034 781.63311926 1009.57136525 777.27289222 1007.1875 772.9375 C1003.6248394 766.43889371 1000.54921541 759.75261663 997.5 753 C994.22818658 745.75730109 990.86927827 738.66209039 987.04321289 731.6953125 C984.15052125 726.38565807 981.5313872 720.96103719 978.9375 715.5 C978.2571167 714.06781128 978.2571167 714.06781128 977.56298828 712.60668945 C976.58229631 710.54095882 975.60183849 708.47511702 974.62158203 706.40917969 C971.55946681 699.97145355 968.47248425 693.54577452 965.375 687.125 C965.05116333 686.45332794 964.72732666 685.78165588 964.39367676 685.08963013 C960.47483962 676.9720915 956.45060202 668.9354794 952.14233398 661.01635742 C948.65468319 654.52492513 945.67456054 647.81534869 942.66333008 641.09301758 C939.29564492 633.58937154 935.70445588 626.22873534 931.96777344 618.90332031 C930.29385598 615.61122634 928.64860698 612.30482045 927 609 C925.05361077 605.10204246 923.10527066 601.20520012 921.140625 597.31640625 C913.88843248 582.93484365 906.96796724 568.38997811 900.078125 553.83203125 C899.62163574 552.86869873 899.16514648 551.90536621 898.69482422 550.9128418 C897.83485604 549.09634593 896.97700198 547.27884721 896.12158203 545.46020508 C895.73856934 544.65091553 895.35555664 543.84162598 894.9609375 543.0078125 C894.62884277 542.30285645 894.29674805 541.59790039 893.95458984 540.87158203 C892.9211996 538.75603578 892.9211996 538.75603578 891 536 C885.28033103 543.26679255 879.80804657 550.56966404 874.7890625 558.34375 C873 561 873 561 871.0234375 563.40625 C869.10042598 565.87126863 867.60379918 568.40093397 866.08984375 571.12988281 C864.1104558 574.52641321 861.78960912 577.68304861 859.5 580.875 C858.43618664 582.37108573 857.3723849 583.86717973 856.30859375 585.36328125 C855.20579334 586.90889995 854.10292834 588.45447258 853 590 C850.85048648 593.01823543 848.705586 596.03969873 846.5625 599.0625 C845.83740234 600.07836182 845.83740234 600.07836182 845.09765625 601.11474609 C842.23411352 605.1525402 839.5852234 609.25012266 837.09350586 613.52905273 C836.73264893 614.01446533 836.37179199 614.49987793 836 615 C835.34 615 834.68 615 834 615 C833.62294922 616.06347656 833.62294922 616.06347656 833.23828125 617.1484375 C831.86790751 620.30418776 830.18163784 622.82062805 828.1875 625.625 C827.37422912 626.77810253 826.56177945 627.93178452 825.75 629.0859375 C825.30914063 629.71081055 824.86828125 630.33568359 824.4140625 630.97949219 C821.80225892 634.71141318 819.25089007 638.48474695 816.6875 642.25 C812.38311656 648.55656914 808.03445176 654.82892914 803.625 661.0625 C803.12919434 661.76358887 802.63338867 662.46467773 802.12255859 663.18701172 C799.99802817 666.18774065 797.86819874 669.18443103 795.73046875 672.17578125 C795.09753906 673.06652344 794.46460938 673.95726562 793.8125 674.875 C793.28269531 675.61492188 792.75289062 676.35484375 792.20703125 677.1171875 C790.83342786 679.09007772 790.83342786 679.09007772 790 682 C789.34 682 788.68 682 788 682 C787.75765625 682.5259375 787.5153125 683.051875 787.265625 683.59375 C785.63067698 686.70216969 783.70576248 689.58827665 781.75 692.5 C781.10115845 693.46981812 781.10115845 693.46981812 780.43920898 694.45922852 C776.12991971 700.86627287 771.69910889 707.18737875 767.25830078 713.50366211 C763.51168037 718.83288028 759.80143445 724.18466097 756.125 729.5625 C753.12674035 733.94639238 750.08832946 738.28592509 746.9375 742.5625 C743.36469307 747.42122518 740.03527028 752.41814063 736.71289062 757.44897461 C733.59925097 762.14633767 730.34380707 766.71684545 727 771.25390625 C723.96825656 775.4166321 721.0575367 779.66161899 718.13671875 783.90234375 C716.35433179 786.48631607 714.55759442 789.05866224 712.75 791.625 C708.82320554 797.22045538 704.98464953 802.87585898 701.13452148 808.52416992 C696.75972537 814.92681715 692.30498096 821.26941857 687.7824707 827.56860352 C687.31413818 828.22530029 686.84580566 828.88199707 686.36328125 829.55859375 C685.95376221 830.12892334 685.54424316 830.69925293 685.12231445 831.28686523 C683.91650379 833.12745115 682.94744822 835.01581383 682 837 C681.34 837 680.68 837 680 837 C679.73574219 837.72832031 679.47148438 838.45664062 679.19921875 839.20703125 C677.99270071 842.01699998 676.59979984 844.21309175 674.8125 846.6875 C674.26207031 847.45449219 673.71164062 848.22148438 673.14453125 849.01171875 C672.43683594 849.99785156 671.72914063 850.98398437 671 852 C669.27461358 854.45550239 667.55499681 856.91499082 665.83569336 859.37475586 C664.13057947 861.81325695 662.4215806 864.24896965 660.7109375 866.68359375 C654.81354304 875.08516922 648.95674727 883.50982904 643.1875 892 C638.31979381 899.15765537 633.29185198 906.1493079 628 913 C626.046875 912.1328125 626.046875 912.1328125 624 911 C623.25 908.875 623.25 908.875 623 907 C622.34 907 621.68 907 621 907 C619.31029605 904.67628323 617.73400361 902.35405425 616.1875 899.9375 C615.32801154 898.61250946 614.46733705 897.28828751 613.60546875 895.96484375 C613.18056152 895.3085498 612.7556543 894.65225586 612.31787109 893.97607422 C610.98954336 891.98432086 609.5941716 890.05725717 608.17578125 888.12890625 C606 885 606 885 606 883 C605.34 883 604.68 883 604 883 C603.68546875 882.40832031 603.3709375 881.81664062 603.046875 881.20703125 C600.65790122 876.7960646 598.23150393 872.8569563 595 869 C591 863.33333333 591 863.33333333 591 861 C590.34 861 589.68 861 589 861 C587.51953125 858.9453125 587.51953125 858.9453125 585.8125 856.125 C582.39208263 850.60186703 578.76345522 845.29325667 575 840 C573.18562314 837.43882563 571.37382613 834.87583259 569.5625 832.3125 C569.06032959 831.60230713 568.55815918 830.89211426 568.04077148 830.16040039 C562.91897495 822.90628973 557.85833311 815.610012 552.79443359 808.31542969 C549.12713761 803.03868144 545.43853693 797.78003275 541.6875 792.5625 C538.04706355 787.48325391 534.44117934 782.38170749 530.875 777.25 C530.38862061 776.55720947 529.90224121 775.86441895 529.40112305 775.15063477 C526 770.23118625 526 770.23118625 526 768 C525.34 768 524.68 768 524 768 C522.44140625 765.9375 522.44140625 765.9375 520.5625 763 C518.09942108 759.19878428 515.61934731 755.42567169 513.02734375 751.7109375 C512.52581787 750.99164062 512.02429199 750.27234375 511.50756836 749.53125 C510.51013146 748.10463256 509.50968538 746.68011385 508.50610352 745.2578125 C505 740.22022909 505 740.22022909 505 738 C504.34 738 503.68 738 503 738 C501.6953125 736.15625 501.6953125 736.15625 500.125 733.5 C496.55554237 727.70804988 492.58075748 722.31890508 488.43994141 716.92382812 C485.29991462 712.81196253 482.35727721 708.61510192 479.51147461 704.29443359 C472.68692484 693.93469871 465.62351044 683.73789422 458.2355957 673.77270508 C449.44419144 661.8804996 441.11341927 649.64855173 432.76171875 637.44555664 C429.61625136 632.8621113 426.36846025 628.36355359 423.078125 623.8828125 C420.09890938 619.74999083 417.23236462 615.54245184 414.35644531 611.33740234 C409.40541837 604.10849412 404.34261724 596.9600344 399.27929688 589.80957031 C397.67841938 587.54512298 396.08772548 585.27368455 394.5 583 C391.30510787 578.42799919 388.09108944 573.86960127 384.875 569.3125 C384.37162109 568.59900391 383.86824219 567.88550781 383.34960938 567.15039062 C382.86041016 566.45751953 382.37121094 565.76464844 381.8671875 565.05078125 C381.39120117 564.3748291 380.91521484 563.69887695 380.42480469 563.00244141 C379.46815784 561.6579559 378.49982779 560.32171365 377.52050781 558.99365234 C374 554.20343288 374 554.20343288 374 552 C373.34 552 372.68 552 372 552 C370.78514615 550.27578573 369.65181296 548.49365116 368.5625 546.6875 C366.58099956 543.41353059 364.75847713 540.64126001 362 538 C357.22672721 551.50656536 357.22672721 551.50656536 352.66552734 565.08569336 C348.99647659 576.29114206 344.99877804 587.36590393 340.96856689 598.44497681 C336.50774999 610.71727454 332.20377562 623.03561182 327.99813843 635.39749146 C324.43979318 645.8543096 320.776248 656.26536001 317.00415039 666.64746094 C314.98468234 672.21999536 313.03151319 677.80458442 311.1875 683.4375 C306.8685487 696.63062039 302.13712644 709.68592642 297.49902344 722.76928711 C293.69475133 733.50281334 289.91085826 744.24347335 286.14344788 754.98999023 C284.78047209 758.87747655 283.41547633 762.76423437 282.04663086 766.6496582 C281.47249257 768.27945931 280.89835519 769.90926074 280.32421875 771.5390625 C280.04211044 772.33972641 279.76000214 773.14039032 279.46934509 773.96531677 C277.9071371 778.4043133 276.35810102 782.84748763 274.82614136 787.29701233 C274.15967267 789.2295328 273.48848493 791.16034083 272.81542969 793.09057617 C272.00909894 795.40539904 271.21090429 797.72308043 270.42285156 800.04418945 C268.00850568 806.9286978 265.00423111 812.90722409 261 819 C260.53843506 819.70987061 260.07687012 820.41974121 259.60131836 821.15112305 C258.3117813 823.11139799 257.00430608 825.05796233 255.6875 827 C252.64467839 831.38085466 252.64467839 831.38085466 250 836 C248.16296024 836.94317094 246.32125306 837.87806296 244.46044922 838.7734375 C238.69091865 841.64961547 233.15863627 845.00242499 227.57617188 848.22265625 C218.34843556 853.49390125 209.06427928 857.44627967 199.0625 861 C193.79960746 862.87777072 188.54881078 864.75428796 183.375 866.8671875 C176.75469809 869.54635214 170.0116504 871.89070892 163.28555298 874.28741455 C150.37003939 878.8945705 137.54027349 883.62987943 124.85327148 888.84033203 C119.99148937 890.83370124 115.13676015 892.66579145 110.13793945 894.28466797 C106.60021619 895.46835293 103.15132765 896.86779004 99.6875 898.25 C93.19218543 900.80964922 86.65989848 903.21665601 80.0625 905.5 C72.16999222 908.23181852 64.32238463 911.06362408 56.4921875 913.96875 C52.12763755 915.58734693 47.75611353 917.18648653 43.3828125 918.78125 C42.02846943 919.27567878 40.67414008 919.77014515 39.31982422 920.26464844 C37.30117251 921.00171895 35.28233124 921.73824084 33.26275635 922.47277832 C26.76929755 924.83503594 20.32025685 927.20578118 14 930 C12.09110121 930.76955606 10.17489158 931.52136873 8.25 932.25 C7.32703125 932.60578125 6.4040625 932.9615625 5.453125 933.328125 C3 934 3 934 0 933 C-0.09598206 862.56923 -0.19168348 792.13845962 -0.28601074 721.70768738 C-0.28742048 720.65514233 -0.28883022 719.60259728 -0.29028267 718.51815693 C-0.32096309 695.61022694 -0.35159663 672.70229688 -0.38218227 649.79436677 C-0.39719487 638.55049255 -0.41221777 627.30661834 -0.42724609 616.06274414 C-0.42874094 614.94420318 -0.43023578 613.82566222 -0.43177592 612.67322608 C-0.47970611 576.81224199 -0.52830798 540.95125885 -0.57728135 505.09027618 C-0.62786044 468.05076677 -0.67771583 431.01125645 -0.7267361 393.97174495 C-0.73375663 388.66730208 -0.74078493 383.36285922 -0.74781799 378.05841637 C-0.74989272 376.49335349 -0.74989272 376.49335349 -0.75200936 374.89667317 C-0.77110434 360.50540276 -0.79067027 346.11413306 -0.81063746 331.72286383 C-0.87733987 283.63334474 -0.93784826 235.54382596 -0.98385975 187.45428223 C-0.99276689 178.17540994 -1.00214542 168.89653848 -1.01249313 159.61766768 C-1.0354007 139.01386377 -1.05553803 118.41006472 -1.06649265 97.80625054 C-1.07118286 89.11115828 -1.0773546 80.41607415 -1.08801365 71.72098696 C-1.09687708 64.48110659 -1.10230927 57.24123411 -1.10318889 50.00134817 C-1.10372924 46.34035427 -1.10583052 42.67938022 -1.11238134 39.01839171 C-1.11943107 35.0499127 -1.1185636 31.08145673 -1.11699677 27.11297131 C-1.12024901 25.98072551 -1.12350126 24.84847971 -1.12685207 23.68192344 C-1.11439625 15.75270251 -0.65190965 7.90144472 0 0 Z " fill="#FFFFFF" transform="translate(347,83)"/>
</svg>
